<svg width="87" height="30" viewBox="0 0 87 30" fill="none" xmlns="http://www.w3.org/2000/svg">
<path d="M0 2.6543H8.04256V10.2901H0V2.6543ZM0 14.7278H8.04256V21.0011C8.04256 23.31 7.56767 25.1316 6.61789 26.466C5.66811 27.8004 4.04764 28.9784 1.75647 30L0 26.6686C1.42919 25.9942 2.41189 25.3235 2.9481 24.6566C3.48582 24.0115 3.80087 23.2064 3.84538 22.3635H0V14.7278Z" fill="#002F2F"/>
<path d="M20.937 2.6543C25.1632 2.6543 28.3386 3.65802 28.3386 7.78794C28.3386 9.58824 27.4936 10.9749 26.0366 11.8898C27.8441 12.5092 29.1261 13.8959 29.1261 16.2856C29.1261 20.7116 25.9779 22.3629 21.2565 22.3629H12.4258V2.6543H20.937ZM17.0316 6.46075V10.4469H21.0829C22.6276 10.4469 23.5598 9.65032 23.5598 8.44075C23.5598 7.19916 22.6276 6.46401 21.0829 6.46401L17.0316 6.46075ZM17.0316 14.041V18.497H21.2862C23.268 18.497 24.2595 17.6409 24.2595 16.2543C24.2595 14.8676 23.268 14.041 21.2862 14.041H17.0316Z" fill="#002F2F"/>
<path d="M32.9277 2.6543H37.3586V17.0541C37.3586 18.4408 37.795 18.7067 39.281 18.7067H40.5352V22.3661H37.7078C34.1516 22.3661 32.9277 21.6872 32.9277 18.2356V2.6543Z" fill="#002F2F"/>
<path d="M42 7.72987H49.1982V22.3636H44.7383V11.1521H42V7.72987ZM44.3607 2.65439C44.3608 2.1293 44.5147 1.61604 44.803 1.1795C45.0913 0.742971 45.5009 0.40277 45.9802 0.201916C46.4594 0.00106308 46.9868 -0.0514223 47.4955 0.0510967C48.0042 0.153616 48.4715 0.406535 48.8382 0.777875C49.205 1.14922 49.4547 1.6223 49.5558 2.13731C49.657 2.65232 49.605 3.18612 49.4065 3.67123C49.208 4.15634 48.8718 4.57096 48.4405 4.86267C48.0092 5.15438 47.5021 5.31008 46.9834 5.31008C46.6385 5.31155 46.2968 5.24386 45.9779 5.11091C45.659 4.97796 45.3692 4.78239 45.1254 4.53548C44.8815 4.28858 44.6884 3.99523 44.5572 3.67236C44.4259 3.3495 44.3591 3.00352 44.3607 2.65439V2.65439Z" fill="#002F2F"/>
<path d="M57.2833 7.72984L57.839 9.67652C58.4781 8.58458 60.0803 7.3175 62.2964 7.3175C66.0275 7.3175 67.1642 9.50205 67.1642 13.4555V22.3636H62.7334V14.5743C62.7334 12.5093 62.6456 10.7979 60.5186 10.7979C58.653 10.7979 57.8371 12.1845 57.8371 14.8402V22.3636H53.4062V7.72984H57.2833Z" fill="#002F2F"/>
<path d="M75.9771 2.6543V13.2764L80.8146 7.72978H86.0615L80.4067 13.8364L86.4991 22.3635H81.251L77.4902 17.0541L75.9771 18.6754V22.3635H71.5469V2.6543H75.9771Z" fill="#002F2F"/>
</svg>
