<svg width="87" height="31" viewBox="0 0 87 31" fill="#ffffff" xmlns="http://www.w3.org/2000/svg">
<path d="M0 2.65775H8.04256V10.2935H0V2.65775ZM0 14.7312H8.04256V21.0045C8.04256 23.3134 7.56767 25.1351 6.61789 26.4695C5.66811 27.8038 4.04764 28.9818 1.75647 30.0034L0 26.672C1.42919 25.9976 2.41189 25.327 2.9481 24.66C3.48582 24.0149 3.80087 23.2098 3.84538 22.367H0V14.7312Z"/>
<path d="M20.9367 2.65775C25.1629 2.65775 28.3382 3.66147 28.3382 7.79139C28.3382 9.59169 27.4933 10.9783 26.0363 11.8932C27.8438 12.5127 29.1258 13.8994 29.1258 16.2891C29.1258 20.715 25.9776 22.3663 21.2562 22.3663H12.4255V2.65775H20.9367ZM17.0313 6.46419V10.4503H21.0826C22.6273 10.4503 23.5594 9.65377 23.5594 8.4442C23.5594 7.20261 22.6273 6.46746 21.0826 6.46746L17.0313 6.46419ZM17.0313 14.0444V18.5004H21.2859C23.2677 18.5004 24.2592 17.6444 24.2592 16.2577C24.2592 14.8711 23.2677 14.0444 21.2859 14.0444H17.0313Z"/>
<path d="M32.9274 2.65775H37.3582V17.0576C37.3582 18.4442 37.7946 18.7102 39.2806 18.7102H40.5348V22.3696H37.7075C34.1513 22.3696 32.9274 21.6906 32.9274 18.239V2.65775Z"/>
<path d="M42.0009 7.73329H49.1991V22.367H44.7392V11.1555H42.0009V7.73329ZM44.3615 2.6578C44.3617 2.13272 44.5156 1.61946 44.8039 1.18292C45.0921 0.746389 45.5018 0.406188 45.981 0.205334C46.4603 0.00448105 46.9876 -0.0480044 47.4964 0.0545147C48.0051 0.157034 48.4723 0.409953 48.8391 0.781293C49.2058 1.15263 49.4555 1.62572 49.5567 2.14073C49.6578 2.65574 49.6059 3.18954 49.4073 3.67465C49.2088 4.15976 48.8726 4.57438 48.4413 4.86609C48.01 5.1578 47.503 5.3135 46.9843 5.3135C46.6394 5.31497 46.2976 5.24728 45.9787 5.11433C45.6598 4.98138 45.3701 4.78581 45.1262 4.5389C44.8824 4.292 44.6893 3.99864 44.558 3.67578C44.4268 3.35292 44.36 3.00694 44.3615 2.6578V2.6578Z"/>
<path d="M57.2831 7.73326L57.8389 9.67994C58.4779 8.588 60.0801 7.32092 62.2962 7.32092C66.0273 7.32092 67.1641 9.50546 67.1641 13.4589V22.367H62.7332V14.5777C62.7332 12.5127 62.6454 10.8013 60.5184 10.8013C58.6529 10.8013 57.8369 12.1879 57.8369 14.8436V22.367H53.4061V7.73326H57.2831Z"/>
<path d="M75.978 2.65775V13.2799L80.8155 7.73323H86.0623L80.4075 13.8399L86.5 22.367H81.2519L77.4911 17.0576L75.978 18.6788V22.367H71.5477V2.65775H75.978Z"/>
</svg>
